# xmcd
#
# Track frame offsets:
#	150
#	10876
#	25435
#	36697
#	51791
#	64462
#	76033
#	86463
#	103203
#	118608
#
# Disc length: 1754 seconds
#
# Revision: 0
# Processed by: cddbd v1.5.2PL0 Copyright (c) Steve Scherf et al.
# Submitted via: EasyCDDAExtractor 10.2.0.1
#
DISCID=8306d80a
DTITLE=Otha Geeslin - Hymns For Him
DYEAR=2000
DGENRE=Gospel
TTITLE0=At Calvary
TTITLE1=This Little Light Of Mine
TTITLE2=Send The Light
TTITLE3=In the Gatrden
TTITLE4=I Know Who Holds Tomorrow
TTITLE5=He Keeps Me Singing
TTITLE6=When The Morning Comes
TTITLE7=Blessed Redeemer
TTITLE8=At The Cross
TTITLE9=When The Roll Is Called Up Yonder
EXTD=
EXTT0=
EXTT1=
EXTT2=
EXTT3=
EXTT4=
EXTT5=
EXTT6=
EXTT7=
EXTT8=
EXTT9=
PLAYORDER=
